<?xml version="1.0" standalone="no"?>
<!DOCTYPE svg PUBLIC "-//W3C//DTD SVG 20010904//EN"
 "http://www.w3.org/TR/2001/REC-SVG-20010904/DTD/svg10.dtd">
<svg version="1.0" xmlns="http://www.w3.org/2000/svg"
 width="359.000000pt" height="359.000000pt" viewBox="0 0 359.000000 359.000000"
 preserveAspectRatio="xMidYMid meet">
<metadata>
Created by potrace 1.14, written by Peter Selinger 2001-2017
</metadata>
<g transform="translate(0.000000,359.000000) scale(0.100000,-0.100000)"
fill="#000000" stroke="none">
<path d="M3555 3401 c-112 -69 -202 -297 -175 -442 11 -61 45 -99 86 -99 26 0
89 28 82 36 -3 2 -19 -3 -37 -12 -59 -30 -107 0 -121 76 -27 142 63 364 180
442 34 23 22 22 -15 -1z"/>
<path d="M1636 3119 c-54 -43 -58 -179 -6 -231 34 -34 41 -34 75 -5 38 32 47
133 17 199 -23 53 -51 65 -86 37z m81 -47 c23 -55 13 -156 -18 -182 -30 -24
-32 -24 -58 -2 -41 33 -49 137 -15 204 25 49 66 41 91 -20z"/>
<path d="M3570 2918 c-12 -22 -12 -22 6 -6 10 10 15 20 12 24 -4 3 -12 -5 -18
-18z"/>
<path d="M2730 2778 c-18 -20 -21 -32 -18 -84 3 -55 8 -65 43 -102 50 -52 94
-63 124 -33 12 12 21 29 21 39 0 13 -3 11 -13 -7 -19 -38 -40 -46 -75 -32 -72
30 -116 147 -78 206 37 56 124 4 152 -91 16 -56 29 -75 18 -26 -13 55 -46 112
-78 132 -43 26 -70 25 -96 -2z"/>
<path d="M12 2521 c-9 -5 1 -8 28 -8 55 0 88 -26 123 -93 28 -56 37 -54 13 3
-14 34 -78 97 -99 97 -7 0 -21 3 -32 5 -11 3 -26 1 -33 -4z"/>
<path d="M1267 2373 c-4 -21 -7 -52 -7 -68 0 -29 -3 -32 -57 -44 -32 -7 -64
-15 -71 -18 -8 -3 -21 15 -36 49 -13 29 -30 61 -38 71 -13 18 -14 18 -31 -1
-16 -18 -16 -22 13 -86 l31 -67 -23 -19 c-13 -11 -26 -19 -29 -20 -3 0 -26
-26 -51 -58 -123 -156 -111 -363 29 -513 l45 -48 -21 -27 c-12 -15 -21 -36
-20 -48 1 -16 3 -14 9 8 5 16 24 44 42 63 18 19 26 32 17 28 -22 -8 -104 83
-137 153 -22 48 -27 71 -27 147 0 112 26 175 108 258 160 164 404 163 566 -2
30 -30 64 -78 77 -106 50 -108 40 -261 -17 -290 -16 -9 -33 -25 -39 -38 -11
-21 -11 -21 8 1 21 27 95 45 152 37 19 -2 27 -2 18 1 -41 12 -49 184 -14 269
23 53 96 137 153 173 114 72 259 81 377 23 84 -41 173 -135 200 -211 38 -105
19 -241 -46 -336 -21 -30 -28 -34 -73 -35 l-50 -2 55 -7 c64 -7 64 -7 112 88
59 118 49 288 -22 377 -16 21 -30 42 -30 47 0 5 17 30 37 55 29 35 35 48 26
61 -19 30 -37 23 -70 -27 l-32 -50 -57 34 c-32 19 -66 37 -76 41 -22 7 -22 10
-2 86 8 33 13 62 11 64 -2 2 -17 7 -34 10 l-31 6 -7 -71 -7 -72 -56 3 -56 3
-14 55 c-17 67 -22 73 -55 61 l-26 -10 24 -58 24 -58 -22 -9 c-109 -44 -152
-74 -221 -155 -58 -68 -92 -219 -68 -303 10 -37 9 -38 -14 -38 -23 0 -24 2
-17 38 13 58 7 154 -11 210 -21 63 -78 141 -134 184 l-40 31 31 55 c29 53 30
55 12 69 -27 19 -37 13 -68 -44 l-27 -51 -47 14 c-25 8 -57 14 -71 14 -23 0
-24 2 -21 68 4 66 4 67 -22 70 -23 3 -27 -1 -32 -35z"/>
<path d="M192 2303 c-2 -71 -32 -160 -69 -203 -13 -17 -20 -30 -14 -30 13 0
57 75 77 132 9 28 14 68 11 104 l-3 59 -2 -62z"/>
<path d="M77 2064 c-3 -3 -23 -12 -44 -19 -21 -8 -30 -14 -20 -15 18 0 77 27
77 35 0 7 -5 6 -13 -1z"/>
<path d="M1945 2045 c-5 -2 -22 -6 -37 -9 -63 -14 -128 -102 -128 -174 0 -84
93 -172 181 -172 53 1 114 34 148 81 75 103 8 249 -124 271 -16 3 -34 4 -40 3z
m91 -49 c47 -2 55 -20 58 -138 1 -59 15 -70 17 -15 2 30 2 30 6 5 2 -15 -3
-38 -11 -50 -10 -14 -16 -17 -16 -8 0 9 -9 6 -27 -11 -66 -60 -135 -65 -191
-14 -36 32 -64 89 -58 118 17 81 94 134 171 119 17 -3 39 -6 51 -6z"/>
<path d="M1903 1962 c-53 -8 -81 -92 -47 -140 12 -18 25 -22 68 -22 38 0 57 5
68 18 58 67 1 159 -89 144z m77 -42 c0 -5 -4 -10 -10 -10 -5 0 -10 5 -10 10 0
6 5 10 10 10 6 0 10 -4 10 -10z"/>
<path d="M1390 1988 c-57 -30 -82 -65 -88 -126 -9 -99 62 -177 162 -176 172 2
228 221 77 301 -55 29 -95 29 -151 1z m138 -38 c18 -11 40 -36 48 -55 16 -40
19 -91 4 -100 -5 -3 -10 -12 -10 -18 1 -22 30 27 31 52 2 24 2 24 6 3 2 -12
-5 -38 -17 -57 -23 -37 -33 -46 -24 -20 7 18 -7 20 -24 3 -16 -16 -38 -21 -93
-22 -39 -1 -52 4 -86 34 -35 31 -39 39 -35 70 14 105 116 161 200 110z"/>
<path d="M1419 1935 c-55 -30 -56 -119 -3 -144 87 -39 170 30 130 108 -27 51
-75 64 -127 36z m101 -35 c0 -5 -2 -10 -4 -10 -3 0 -8 5 -11 10 -3 6 -1 10 4
10 6 0 11 -4 11 -10z"/>
<path d="M1810 1710 c6 -11 13 -20 16 -20 2 0 0 9 -6 20 -6 11 -13 20 -16 20
-2 0 0 -9 6 -20z"/>
<path d="M1832 1641 c-4 -102 -61 -191 -123 -191 -60 0 -124 102 -121 193 1
23 -2 27 -8 17 -6 -8 -10 -25 -10 -37 0 -22 -42 -64 -89 -87 -14 -7 -56 -19
-93 -26 -72 -14 -97 -37 -27 -25 63 11 151 44 186 71 l31 24 22 -45 c28 -59
72 -95 115 -95 28 0 40 8 67 43 19 23 40 55 46 71 l12 28 35 -27 c59 -44 163
-75 254 -75 79 0 80 0 84 -27 3 -20 4 -17 6 13 l1 41 -47 -9 c-35 -6 -71 -4
-133 8 -122 24 -195 76 -203 144 -3 32 -4 32 -5 -9z"/>
<path d="M2271 1584 c-18 -14 -36 -36 -42 -48 -6 -13 -2 -10 12 8 12 15 36 37
53 47 17 10 26 19 19 19 -6 0 -25 -12 -42 -26z"/>
<path d="M1118 1593 c7 -3 16 -2 19 1 4 3 -2 6 -13 5 -11 0 -14 -3 -6 -6z"/>
<path d="M2476 1569 c17 -19 36 -43 42 -54 6 -11 12 -15 12 -10 0 19 -39 74
-62 86 -19 10 -18 6 8 -22z"/>
<path d="M1275 1550 c10 -11 20 -20 23 -20 3 0 -3 9 -13 20 -10 11 -20 20 -23
20 -3 0 3 -9 13 -20z"/>
<path d="M2531 1470 c-3 -47 -39 -109 -76 -131 -42 -25 -47 -36 -6 -14 52 26
99 109 88 152 -3 13 -5 10 -6 -7z"/>
<path d="M2342 1466 c16 -12 15 -15 -10 -38 -74 -68 -228 -139 -367 -169 -59
-12 -72 -17 -39 -14 l51 5 7 -37 c3 -21 6 -53 6 -70 l0 -33 -74 0 -73 0 -6 59
c-3 33 -8 64 -12 70 -3 6 -37 11 -75 11 -86 0 -236 29 -360 69 -103 34 -199
84 -181 95 15 10 14 26 -2 26 -20 0 -65 -52 -50 -57 6 -2 22 -34 34 -71 12
-36 26 -71 31 -77 4 -5 27 -39 51 -75 54 -82 154 -190 177 -190 9 0 29 -9 43
-20 55 -44 111 -60 228 -66 201 -11 353 39 457 150 93 100 194 268 208 346 3
19 13 40 21 46 12 10 10 15 -13 33 -15 12 -36 21 -48 21 -19 -1 -20 -2 -4 -14z
m-679 -223 l57 -6 0 -46 c0 -25 -3 -56 -6 -68 -7 -24 -8 -24 -121 -7 l-33 5 0
71 c0 68 1 70 23 64 12 -3 48 -9 80 -13z m66 -127 c-9 -8 -10 -7 -5 7 3 10 7
42 8 70 l2 52 3 -59 c3 -37 0 -63 -8 -70z m88 92 c-3 -7 -5 -2 -5 12 0 14 2
19 5 13 2 -7 2 -19 0 -25z m10 -80 c-3 -8 -6 -5 -6 6 -1 11 2 17 5 13 3 -3 4
-12 1 -19z"/>
<path d="M1000 1415 c4 -20 11 -39 14 -43 9 -8 -5 62 -15 72 -4 5 -4 -8 1 -29z"/>
<path d="M1025 1349 c9 -23 58 -57 91 -64 26 -5 25 -4 -6 10 -19 9 -48 28 -63
43 -16 15 -26 20 -22 11z"/>
<path d="M3258 1067 c-60 -50 -80 -142 -54 -241 16 -58 65 -136 86 -136 5 0
-2 11 -16 25 -60 60 -87 180 -59 264 58 175 246 109 262 -93 6 -69 -12 -142
-44 -180 -17 -20 -17 -20 1 -6 58 45 74 185 32 275 -33 72 -85 115 -139 115
-29 0 -50 -7 -69 -23z"/>
<path d="M3333 677 c16 -5 38 -5 55 1 23 8 19 9 -27 9 -46 -1 -50 -2 -28 -10z"/>
<path d="M294 322 c-67 -46 -57 -220 18 -300 12 -12 25 -22 29 -22 4 0 -6 14
-21 30 -82 87 -78 290 6 290 58 0 124 -111 124 -207 0 -34 -23 -91 -44 -106
-7 -6 -6 -7 4 -5 8 2 23 20 33 39 36 68 5 204 -60 265 -25 23 -67 31 -89 16z"/>
</g>
</svg>
